<svg width="92" height="278" viewBox="0 0 92 278" fill="none" xmlns="http://www.w3.org/2000/svg">
<path d="M-22.201 160.967C-30.2591 167.262 -34.8891 177.499 -37.8431 188.55C-40.3556 197.949 -41.6726 208.009 -42.8293 216.844C-43.0332 218.401 -43.2321 219.921 -43.4317 221.392C-44.0991 226.311 -44.7728 230.679 -45.6619 234.145C-46.5583 237.639 -47.6469 240.096 -49.066 241.31C-49.7551 241.9 -50.5199 242.195 -51.4033 242.177C-52.3015 242.158 -53.3651 241.815 -54.6311 241.044C-57.1718 239.497 -60.3897 236.313 -64.4991 231.053C-80.9347 210.016 -103.241 172.311 -117.474 136.777C-124.59 119.008 -129.675 101.815 -131.01 87.5373C-132.347 73.232 -129.907 62.0181 -122.19 55.9889C-118.363 52.9988 -112.828 51.849 -105.919 52.2841C-99.0162 52.7187 -90.8095 54.7315 -81.7143 57.9865C-63.5261 64.4956 -41.8758 75.9386 -20.1671 89.4852C23.263 116.586 66.8012 152.026 83.2129 173.031C85.2644 175.657 86.762 177.801 87.7656 179.522C88.7775 181.257 89.2558 182.509 89.3315 183.365C89.3685 183.784 89.3059 184.072 89.196 184.273C89.0895 184.467 88.9132 184.625 88.6288 184.741C88.0249 184.987 87.015 185.008 85.5615 184.754C82.686 184.252 78.454 182.75 73.2469 180.655C69.6531 179.209 65.6199 177.49 61.2782 175.64C59.3409 174.814 57.3422 173.962 55.2937 173.097C42.0313 167.494 26.7109 161.331 12.7133 158.123C5.71351 156.519 -0.977955 155.649 -6.93039 155.965C-12.8831 156.281 -18.1302 157.786 -22.201 160.967Z" stroke="#383838" stroke-opacity="0.25"/>
<path d="M-35.7173 140.819C-41.2132 145.113 -44.3587 152.083 -46.3609 159.574C-48.0645 165.946 -48.9574 172.767 -49.7401 178.746C-49.878 179.8 -50.0125 180.828 -50.1475 181.822C-50.5992 185.151 -51.0541 188.1 -51.6533 190.435C-52.2597 192.799 -52.9872 194.416 -53.9058 195.202C-54.3447 195.578 -54.8245 195.761 -55.3794 195.75C-55.9492 195.738 -56.641 195.52 -57.4833 195.007C-59.1767 193.976 -61.3399 191.84 -64.119 188.283C-75.2331 174.058 -90.3233 148.551 -99.9508 124.514C-104.765 112.494 -108.2 100.873 -109.101 91.2324C-110.005 81.5636 -108.348 74.0494 -103.193 70.022C-100.648 68.0329 -96.9477 67.2552 -92.2902 67.5485C-87.6395 67.8413 -82.101 69.1984 -75.9524 71.3989C-63.6577 75.7989 -49.0153 83.5371 -34.3268 92.7029C-4.93713 111.042 24.5114 135.017 35.6016 149.212C36.988 150.986 37.9967 152.431 38.6708 153.587C39.3531 154.756 39.6613 155.578 39.7092 156.12C39.7324 156.382 39.6915 156.543 39.6368 156.643C39.5855 156.736 39.4979 156.821 39.3336 156.888C38.9699 157.036 38.3256 157.058 37.3464 156.887C35.4193 156.55 32.5699 155.541 29.044 154.122C26.6133 153.144 23.8861 151.981 20.9484 150.73C19.6368 150.171 18.2832 149.594 16.8954 149.007C7.91952 145.215 -2.46157 141.039 -11.9509 138.864C-16.6965 137.777 -21.2416 137.184 -25.2909 137.4C-29.3405 137.615 -32.9277 138.64 -35.7173 140.819Z" stroke="#383838" stroke-opacity="0.25"/>
<path d="M-46.1927 124.896C-49.1373 127.196 -50.8047 130.914 -51.8593 134.86C-52.7574 138.219 -53.228 141.815 -53.6385 144.951C-53.7107 145.503 -53.781 146.04 -53.8515 146.56C-54.0886 148.307 -54.3257 149.841 -54.6362 151.051C-54.9539 152.289 -55.3218 153.07 -55.7421 153.43C-55.9317 153.593 -56.1277 153.665 -56.3556 153.66C-56.5983 153.655 -56.92 153.561 -57.3405 153.305C-58.1903 152.788 -59.3033 151.696 -60.7577 149.835C-66.5733 142.391 -74.4782 129.031 -79.5206 116.442C-82.0424 110.145 -83.835 104.074 -84.3047 99.0494C-84.777 93.997 -83.8995 90.1666 -81.2959 88.1325C-80.0256 87.14 -78.1532 86.7328 -75.7377 86.8848C-73.329 87.0365 -70.447 87.7408 -67.2326 88.8912C-60.8059 91.1912 -53.1413 95.2406 -45.4428 100.045C-30.0332 109.66 -14.6137 122.219 -8.82202 129.632C-8.09799 130.559 -7.57607 131.307 -7.23004 131.9C-6.8758 132.508 -6.73707 132.901 -6.71676 133.131C-6.71216 133.183 -6.71458 133.218 -6.71819 133.24C-6.72167 133.261 -6.7261 133.269 -6.7264 133.269C-6.7267 133.27 -6.7267 133.27 -6.72652 133.27C-6.72642 133.27 -6.72653 133.27 -6.72696 133.27C-6.72725 133.27 -6.72771 133.271 -6.72835 133.271C-6.73141 133.274 -6.74214 133.282 -6.76667 133.292C-6.89126 133.343 -7.17147 133.366 -7.67855 133.278C-8.66136 133.106 -10.1341 132.586 -11.9859 131.841C-13.2587 131.329 -14.6858 130.72 -16.2256 130.064C-16.9141 129.771 -17.6251 129.468 -18.3549 129.159C-23.0627 127.171 -28.5257 124.972 -33.5262 123.826C-36.0273 123.253 -38.4352 122.937 -40.5896 123.052C-42.7443 123.166 -44.6787 123.713 -46.1927 124.896Z" stroke="#383838" stroke-opacity="0.25"/>
</svg>
