<svg width="155" height="115" viewBox="0 0 155 115" fill="none" xmlns="http://www.w3.org/2000/svg">
<path d="M310 182C310 192.684 304.044 201 294.085 207.488C284.114 213.983 270.185 218.604 254.395 221.872C222.823 228.407 183.992 229.5 155 229.5C126.103 229.5 99.9611 220.687 81.0544 206.462C62.1479 192.237 50.5 172.623 50.5 151C50.5 140.287 57.5466 127.64 69.171 114.645C80.7759 101.672 96.8658 88.4376 114.78 76.5552C132.693 64.6742 152.413 54.1561 171.268 46.6099C190.132 39.0604 208.094 34.5 222.5 34.5C236.834 34.5 249.466 40.9465 260.369 51.3512C271.277 61.7599 280.433 76.11 287.793 91.8504C302.517 123.337 310 160.265 310 182Z" stroke="#383838" stroke-opacity="0.25"/>
<path d="M285 165C285 175.684 279.044 184 269.085 190.488C259.114 196.983 245.185 201.604 229.395 204.872C197.823 211.407 158.992 212.5 130 212.5C101.103 212.5 74.9611 203.687 56.0544 189.462C37.1479 175.237 25.5 155.623 25.5 134C25.5 123.287 32.5466 110.64 44.171 97.6455C55.7759 84.6723 71.8658 71.4376 89.7802 59.5552C107.693 47.6742 127.413 37.1561 146.268 29.6099C165.132 22.0604 183.094 17.5 197.5 17.5C211.834 17.5 224.466 23.9465 235.369 34.3512C246.277 44.7599 255.433 59.11 262.793 74.8504C277.517 106.337 285 143.265 285 165Z" stroke="#383838" stroke-opacity="0.25"/>
<path d="M260 148C260 158.684 254.044 167 244.085 173.488C234.114 179.983 220.185 184.604 204.395 187.872C172.823 194.407 133.992 195.5 105 195.5C76.1031 195.5 49.9611 186.687 31.0544 172.462C12.1479 158.237 0.5 138.623 0.5 117C0.5 106.287 7.54661 93.6403 19.171 80.6455C30.7759 67.6723 46.8658 54.4376 64.7802 42.5552C82.6926 30.6742 102.413 20.1561 121.268 12.6099C140.132 5.06044 158.094 0.5 172.5 0.5C186.834 0.5 199.466 6.94654 210.369 17.3512C221.277 27.7599 230.433 42.11 237.793 57.8504C252.517 89.3371 260 126.265 260 148Z" stroke="#383838" stroke-opacity="0.25"/>
</svg>
