<svg width="114" height="115" viewBox="0 0 114 115" fill="none" xmlns="http://www.w3.org/2000/svg">
<path d="M113 67C113 77.6839 107.044 86.0004 97.085 92.4877C87.1143 98.9827 73.1846 103.604 57.3949 106.872C25.8227 113.407 -13.008 114.5 -42 114.5C-70.8969 114.5 -97.0389 105.687 -115.946 91.4619C-134.852 77.237 -146.5 57.6233 -146.5 36C-146.5 25.2866 -139.453 12.6403 -127.829 -0.354507C-116.224 -13.3277 -100.134 -26.5624 -82.2198 -38.4448C-64.3074 -50.3258 -44.5872 -60.8439 -25.7318 -68.3901C-6.86827 -75.9396 11.0937 -80.5 25.5 -80.5C39.8345 -80.5 52.4657 -74.0535 63.3693 -63.6488C74.2771 -53.2401 83.433 -38.89 90.7933 -23.1496C105.517 8.3371 113 45.2652 113 67Z" stroke="#383838" stroke-opacity="0.25"/>
<path d="M88 50C88 60.6839 82.0439 69.0004 72.085 75.4877C62.1143 81.9827 48.1846 86.6036 32.3949 89.8718C0.822678 96.4068 -38.008 97.5 -67 97.5C-95.8969 97.5 -122.039 88.6869 -140.946 74.4619C-159.852 60.237 -171.5 40.6233 -171.5 19C-171.5 8.28661 -164.453 -4.35966 -152.829 -17.3545C-141.224 -30.3277 -125.134 -43.5624 -107.22 -55.4448C-89.3074 -67.3258 -69.5872 -77.8439 -50.7318 -85.3901C-31.8683 -92.9396 -13.9063 -97.5 0.5 -97.5C14.8345 -97.5 27.4657 -91.0535 38.3693 -80.6488C49.2771 -70.2401 58.433 -55.89 65.7933 -40.1496C80.5168 -8.6629 88 28.2652 88 50Z" stroke="#383838" stroke-opacity="0.25"/>
<path d="M63 33C63 43.6839 57.0439 52.0004 47.085 58.4877C37.1143 64.9827 23.1846 69.6036 7.39487 72.8718C-24.1773 79.4068 -63.008 80.5 -92 80.5C-120.897 80.5 -147.039 71.6869 -165.946 57.4619C-184.852 43.237 -196.5 23.6233 -196.5 2C-196.5 -8.71339 -189.453 -21.3597 -177.829 -34.3545C-166.224 -47.3277 -150.134 -60.5624 -132.22 -72.4448C-114.307 -84.3258 -94.5872 -94.8439 -75.7318 -102.39C-56.8683 -109.94 -38.9063 -114.5 -24.5 -114.5C-10.1655 -114.5 2.46571 -108.053 13.3693 -97.6488C24.2771 -87.2401 33.433 -72.89 40.7933 -57.1496C55.5168 -25.6629 63 11.2652 63 33Z" stroke="#383838" stroke-opacity="0.25"/>
</svg>
