<svg width="102" height="214" viewBox="0 0 102 214" fill="none" xmlns="http://www.w3.org/2000/svg">
<path d="M149.799 96.9668C141.741 103.262 137.111 113.499 134.157 124.55C131.644 133.949 130.327 144.009 129.171 152.844C128.967 154.401 128.768 155.921 128.568 157.392C127.901 162.311 127.227 166.679 126.338 170.145C125.442 173.639 124.353 176.096 122.934 177.31C122.245 177.9 121.48 178.195 120.597 178.177C119.699 178.158 118.635 177.815 117.369 177.044C114.828 175.497 111.61 172.313 107.501 167.053C91.0653 146.016 68.7588 108.311 54.5264 72.7768C47.4097 55.0082 42.325 37.8146 40.9904 23.5373C39.6532 9.23203 42.0929 -1.98187 49.81 -8.01111C53.6371 -11.0012 59.1722 -12.151 66.0814 -11.7159C72.9838 -11.2813 81.1905 -9.26852 90.2857 -6.01352C108.474 0.495636 130.124 11.9386 151.833 25.4852C195.263 52.5861 238.801 88.0256 255.213 109.031C257.264 111.657 258.762 113.801 259.766 115.522C260.777 117.257 261.256 118.509 261.331 119.365C261.369 119.784 261.306 120.072 261.196 120.273C261.09 120.467 260.913 120.625 260.629 120.741C260.025 120.987 259.015 121.008 257.562 120.754C254.686 120.252 250.454 118.75 245.247 116.655C241.653 115.209 237.62 113.49 233.278 111.64C231.341 110.814 229.342 109.962 227.294 109.097C214.031 103.494 198.711 97.3311 184.713 94.1234C177.714 92.5193 171.022 91.6485 165.07 91.9647C159.117 92.281 153.87 93.7863 149.799 96.9668Z" stroke="#383838" stroke-opacity="0.25"/>
<path d="M136.283 76.8191C130.787 81.1129 127.641 88.0832 125.639 95.5735C123.936 101.946 123.043 108.767 122.26 114.746C122.122 115.8 121.987 116.828 121.853 117.822C121.401 121.151 120.946 124.1 120.347 126.435C119.74 128.799 119.013 130.416 118.094 131.202C117.655 131.578 117.176 131.761 116.621 131.75C116.051 131.738 115.359 131.52 114.517 131.007C112.823 129.976 110.66 127.84 107.881 124.283C96.7669 110.058 81.6767 84.5509 72.0492 60.514C67.2349 48.4939 63.7998 36.8734 62.8986 27.2324C61.9948 17.5636 63.6517 10.0494 68.8065 6.02204C71.3525 4.03291 75.0523 3.25519 79.7098 3.54845C84.3605 3.84129 89.899 5.19844 96.0476 7.39887C108.342 11.7989 122.985 19.5371 137.673 28.7029C167.063 47.0424 196.511 71.0168 207.602 85.2116C208.988 86.9861 209.997 88.4308 210.671 89.5865C211.353 90.7563 211.661 91.5784 211.709 92.1205C211.732 92.3822 211.691 92.5431 211.637 92.6428C211.586 92.7362 211.498 92.8209 211.334 92.8878C210.97 93.036 210.326 93.058 209.346 92.887C207.419 92.5504 204.57 91.5409 201.044 90.122C198.613 89.1437 195.886 87.9815 192.948 86.7296C191.637 86.1706 190.283 85.5938 188.895 85.0075C179.92 81.2155 169.538 77.0391 160.049 74.8644C155.303 73.7769 150.758 73.1845 146.709 73.3996C142.659 73.6147 139.072 74.6396 136.283 76.8191Z" stroke="#383838" stroke-opacity="0.25"/>
<path d="M125.807 60.8958C122.863 63.1963 121.195 66.9145 120.141 70.8597C119.243 74.2192 118.772 77.815 118.362 80.951C118.289 81.5028 118.219 82.0404 118.148 82.5599C117.911 84.3069 117.674 85.8409 117.364 87.051C117.046 88.2895 116.678 89.0705 116.258 89.4302C116.068 89.5925 115.872 89.665 115.644 89.6603C115.402 89.6553 115.08 89.5613 114.659 89.3053C113.81 88.7878 112.697 87.6964 111.242 85.8349C105.427 78.3912 97.5218 65.0309 92.4794 52.4415C89.9576 46.1453 88.165 40.0739 87.6953 35.0494C87.223 29.997 88.1005 26.1666 90.7041 24.1325C91.9744 23.14 93.8468 22.7328 96.2623 22.8848C98.671 23.0365 101.553 23.7408 104.767 24.8912C111.194 27.1912 118.859 31.2406 126.557 36.0445C141.967 45.6603 157.386 58.2189 163.178 65.6319C163.902 66.5586 164.424 67.307 164.77 67.9003C165.124 68.5076 165.263 68.9009 165.283 69.1307C165.288 69.1827 165.285 69.2179 165.282 69.2398C165.278 69.2608 165.274 69.2688 165.274 69.2694C165.273 69.2699 165.273 69.2699 165.273 69.2696C165.274 69.2695 165.273 69.2697 165.273 69.2701C165.273 69.2704 165.272 69.2708 165.272 69.2713C165.269 69.2739 165.258 69.2821 165.233 69.2921C165.109 69.3428 164.829 69.3662 164.321 69.2776C163.339 69.106 161.866 68.5861 160.014 67.8408C158.741 67.3286 157.314 66.7204 155.774 66.0642C155.086 65.7708 154.375 65.4678 153.645 65.1595C148.937 63.1706 143.474 60.972 138.474 59.826C135.973 59.2528 133.565 58.9375 131.41 59.0519C129.256 59.1664 127.321 59.7129 125.807 60.8958Z" stroke="#383838" stroke-opacity="0.25"/>
</svg>
